<svg width="250" height="76" viewBox="0 0 250 76" fill="none" xmlns="http://www.w3.org/2000/svg">
<path fill-rule="evenodd" clip-rule="evenodd" d="M10.3878 0H69.2519V6.29563H10.3878V0ZM10.3878 69.252H69.2519V75.5476H10.3878V69.252ZM69.2519 69.2519V6.29565H62.9563V69.2519H69.2519Z" fill="#FF355D"/>
<path fill-rule="evenodd" clip-rule="evenodd" d="M36.9586 17.4695L32.0802 12.5912L6.89902 37.7724V12.5918H9.53674e-06V62.9546H6.89902V37.7985L32.0802 62.9797L36.9586 58.1014L16.6426 37.7854L36.9586 17.4695ZM6.91205 37.7854L6.89902 37.7985V37.7724L6.91205 37.7854ZM50.7767 34.3231H36.9787V41.2221H50.7767V34.3231Z" fill="black"/>
<path fill-rule="evenodd" clip-rule="evenodd" d="M226.643 12.5912H220.347V63.1451H226.643V44.051L245.548 62.9567L250 58.505L235.395 43.9001L249.661 29.6343L245.209 25.1826L226.643 43.7491V12.5912ZM226.794 43.9001L226.643 44.051V43.7492L226.794 43.9001ZM88.1392 12.5915H94.4348V30.18C97.7762 27.1895 102.189 25.3712 107.026 25.3712C117.457 25.3712 125.913 33.8271 125.913 44.2581C125.913 54.689 117.457 63.1449 107.026 63.1449C102.189 63.1449 97.7762 61.3266 94.4348 58.3361V62.9565H88.1392V44.3841C88.1389 44.3421 88.1388 44.3001 88.1388 44.2581C88.1388 44.216 88.1389 44.174 88.1392 44.132V12.5915ZM94.7492 44.2581C94.7492 51.0382 100.246 56.5345 107.026 56.5345C113.806 56.5345 119.302 51.0382 119.302 44.2581C119.302 37.478 113.806 31.9816 107.026 31.9816C100.246 31.9816 94.7492 37.478 94.7492 44.2581ZM163.686 25.1827H169.982V44.2412L169.982 44.2583L169.982 44.2755V63.1453H163.686V58.336C160.345 61.3267 155.932 63.1452 151.095 63.1452C140.664 63.1452 132.208 54.6893 132.208 44.2583C132.208 33.8274 140.664 25.3715 151.095 25.3715C155.932 25.3715 160.345 27.19 163.686 30.1806V25.1827ZM138.819 44.2583C138.819 51.0385 144.315 56.5348 151.095 56.5348C157.875 56.5348 163.372 51.0385 163.372 44.2583C163.372 37.4782 157.875 31.9819 151.095 31.9819C144.315 31.9819 138.819 37.4782 138.819 44.2583ZM179.425 25.1825H185.721V27.3202C188.033 25.9366 190.769 25.1825 193.591 25.1825C197.347 25.1825 200.95 26.519 203.607 28.898C206.238 31.2548 207.728 34.4434 207.755 37.7738H207.756V62.9563H201.46V37.7738H201.522C201.495 35.9238 200.662 34.1549 199.2 32.8449C197.712 31.5127 195.694 30.7642 193.591 30.7642C191.487 30.7642 189.469 31.5127 187.981 32.8449C186.731 33.9648 185.941 35.4201 185.721 36.9747V62.7674H179.425V37.8682V25.1825Z" fill="black"/>
</svg>
